<svg width="64" height="64" viewBox="0 0 64 64" fill="none" xmlns="http://www.w3.org/2000/svg">
  <rect width="64" height="64" rx="14" fill="#000000"/>
  <g filter="url(#glow)">
    <path d="M30.2 28.3C21.7 12.4 10.8 12.3 6.4 20.7c-3.8 7.4 2.4 15.9 16 21.4-11.1 4.8-14.9 11.1-10.8 16 5.6 6.6 14.4-.3 18.9-16.4Z" fill="url(#leftWing)"/>
    <path d="M33.8 28.3c8.5-15.9 19.4-16 23.8-7.6 3.8 7.4-2.4 15.9-16 21.4 11.1 4.8 14.9 11.1 10.8 16-5.6 6.6-14.4-.3-18.9-16.4Z" fill="url(#rightWing)"/>
    <path d="M31.8 22.4c-3.1 6.1-3.1 23.2.2 33.2 3.2-10 3.1-27.1-.2-33.2Z" fill="#DCE4FF" fill-opacity=".78"/>
    <path d="M13 22.2 30.2 28.3 22.4 42.1 11.5 57.5 22.4 42.1 19.4 17" stroke="#F6F5F0" stroke-opacity=".34" stroke-width=".9" stroke-linecap="round" stroke-linejoin="round"/>
    <path d="M34 28.3c6.6-4.2 13.2-4.7 20.2-1.5M41.6 42.1c6.3 1.8 10.4 5.6 12.2 11.2" stroke="#B8C4FF" stroke-opacity=".42" stroke-width=".9" stroke-linecap="round" stroke-dasharray="2.5 3.4"/>
  </g>
  <defs>
    <linearGradient id="leftWing" x1="7" y1="14" x2="35" y2="59" gradientUnits="userSpaceOnUse">
      <stop stop-color="#F6F5F0"/>
      <stop offset=".28" stop-color="#8FA0FF"/>
      <stop offset=".62" stop-color="#3441D6"/>
      <stop offset="1" stop-color="#02030D" stop-opacity=".3"/>
    </linearGradient>
    <linearGradient id="rightWing" x1="34" y1="15" x2="61" y2="58" gradientUnits="userSpaceOnUse">
      <stop stop-color="#B8C4FF" stop-opacity=".92"/>
      <stop offset=".48" stop-color="#3441D6" stop-opacity=".62"/>
      <stop offset="1" stop-color="#050505" stop-opacity=".08"/>
    </linearGradient>
    <filter id="glow" x="-12" y="-12" width="88" height="88" color-interpolation-filters="sRGB">
      <feGaussianBlur stdDeviation="2.2" result="blur"/>
      <feMerge>
        <feMergeNode in="blur"/>
        <feMergeNode in="SourceGraphic"/>
      </feMerge>
    </filter>
  </defs>
</svg>
